<svg xmlns="http://www.w3.org/2000/svg" viewBox="0 0 343.73 393.37"><defs><style>.cls-1{fill:#da4e39;}.cls-2{fill:#fab627;}.cls-3{fill:#3949c6;}.cls-4{fill:#33c687;}</style></defs><g id="Layer_2" data-name="Layer 2"><g id="OBJECTS"><path class="cls-1" d="M10.64,204.1C-15.48,241,9.26,293.44,54.88,295q1.11,0,2.25,0H171.86V229.46H73.52Z"/><path class="cls-2" d="M8,213.07a16.24,16.24,0,0,1,2.68-9c.26-.39.55-.78.83-1.18.06-.06.11-.14.16-.2L117.92,56.79l-8.37-31.71L204.64,0V98.34H171.86L73.52,229.46H24.35A16.39,16.39,0,0,1,8,213.07Z"/><path class="cls-3" d="M333.09,189.26c26.12-36.92,1.38-89.33-44.24-90.88-.75,0-1.49,0-2.25,0H171.86V163.9h98.35Z"/><path class="cls-4" d="M335.77,180.29a16.29,16.29,0,0,1-2.68,9c-.26.4-.55.79-.84,1.18a1.66,1.66,0,0,1-.16.21L225.81,336.58l8.36,31.7-95.09,25.09V295h32.78L270.21,163.9h49.17a16.39,16.39,0,0,1,16.39,16.39Z"/></g></g></svg>